#!OML:ASF F:\VICON\USERDATA\INSTALL\rory3\rory3.ASF
:FULLY-SPECIFIED
:DEGREES
835
root -4.60044 17.7852 1.08862 368.599 -25.8849 -354.854
lowerback 13.4378 1.98793 1.71438
upperback 3.2606 2.96268 3.18337
thorax -4.17608 1.43199 1.87194
lowerneck -21.708 7.8488 -4.79122
upperneck 28.7517 16.0436 -8.73851
head 13.9383 5.16625 0.26127
rclavicle 3.33958e-014 -1.59028e-014
rhumerus -33.0886 -0.243258 -82.9895
rradius 56.4758
rwrist -11.807
rhand -26.8366 -4.32696
rfingers 7.12502
rthumb -0.262288 -34.3065
lclavicle 3.33958e-014 -1.59028e-014
lhumerus -27.9271 -11.425 92.5231
lradius 55.6197
lwrist -4.88013
lhand -18.8533 19.1598
lfingers 7.12502
lthumb 7.44679 49.0087
rfemur -27.945 -7.31828 19.1381
rtibia 38.9455
rfoot -24.5095 -17.4581
rtoes 3.75495
lfemur -40.2291 4.90676 -18.5702
ltibia 51.8797
lfoot -2.22807 -7.22106
ltoes -16.0647
836
root -4.66111 17.7829 1.16663 368.708 -25.3344 -354.913
lowerback 12.9971 1.9755 1.4963
upperback 3.09675 2.91502 3.22057
thorax -4.11935 1.41356 2.05225
lowerneck -21.2802 7.95339 -5.05428
upperneck 28.6934 16.2229 -8.70216
head 13.8016 5.24836 0.327285
rclavicle 3.73715e-014 -2.38542e-014
rhumerus -33.1177 -0.843979 -82.5059
rradius 55.6181
rwrist -11.6686
rhand -26.9808 -4.44842
rfingers 7.12502
rthumb -0.401571 -34.4278
lclavicle 3.73715e-014 -2.38542e-014
lhumerus -28.2039 -10.6277 92.2699
lradius 55.5074
lwrist -4.89754
lhand -19.0469 18.9218
lfingers 7.12502
lthumb 7.25984 48.7772
rfemur -27.5074 -7.47617 19.2468
rtibia 38.8539
rfoot -24.9017 -17.6814
rtoes 3.43813
lfemur -39.8161 4.71103 -18.7501
ltibia 49.5977
lfoot -2.72302 -6.78369
ltoes -15.6846
837
root -4.72212 17.7856 1.24692 368.812 -24.8606 -355.074
lowerback 12.6537 2.04623 1.41471
upperback 2.94831 2.99608 3.22155
thorax -4.09363 1.45664 2.09404
lowerneck -21.0078 8.07193 -5.06145
upperneck 28.8033 16.4308 -8.81036
head 13.8121 5.32698 0.313804
rclavicle -7.15625e-015 1.74931e-014
rhumerus -33.115 -1.62155 -82.0061
rradius 54.6874
rwrist -11.502
rhand -27.2244 -4.71679
rfingers 7.12502
rthumb -0.636784 -34.6956
lclavicle -7.15625e-015 1.74931e-014
lhumerus -28.4033 -10.1694 91.9668
lradius 55.3407
lwrist -4.78225
lhand -18.945 18.8431
lfingers 7.12502
lthumb 7.35828 48.6952
rfemur -27.0197 -7.46963 19.4377
rtibia 38.7504
rfoot -25.3051 -18.0225
rtoes 2.83056
lfemur -39.4131 4.58582 -18.8218
ltibia 47.2928
lfoot -3.21841 -6.04182
ltoes -15.4705
838
root -4.78102 17.7824 1.32693 368.901 -24.3907 -355.262
lowerback 12.3326 2.16668 1.46607
upperback 2.88958 3.15254 3.14664
thorax -3.97655 1.5351 1.9713
lowerneck -21.0567 8.18868 -4.71397
upperneck 29.091 16.6545 -9.11852
head 14.0273 5.38919 0.191594
rclavicle -1.51076e-014 4.45278e-014
rhumerus -32.9549 -2.5498 -81.5731
rradius 53.7515
rwrist -11.3061
rhand -27.4636 -4.82164
rfingers 7.12502
rthumb -0.867884 -34.7996
lclavicle -1.51076e-014 4.45278e-014
lhumerus -28.5071 -9.9443 91.6226
lradius 55.2643
lwrist -4.49052
lhand -18.6093 18.9961
lfingers 7.12502
lthumb 7.68229 48.8366
rfemur -26.5193 -7.4859 19.6732
rtibia 38.6162
rfoot -25.6859 -18.3953
rtoes 2.14433
lfemur -38.9897 4.60221 -18.9356
ltibia 44.998
lfoot -3.62768 -5.61977
ltoes -16.0763
839
root -4.83677 17.7739 1.4101 368.959 -23.8623 -355.467
lowerback 12.0135 2.25943 1.60105
upperback 2.90512 3.27743 3.04006
thorax -3.77449 1.59729 1.77654
lowerneck -21.2976 8.24236 -4.44455
upperneck 29.3574 16.7767 -9.27095
head 14.246 5.41398 0.129841
rclavicle 2.3059e-014 -4.77083e-015
rhumerus -32.7204 -3.45615 -81.2068
rradius 52.8987
rwrist -11.1198
rhand -27.5969 -4.99824
rfingers 7.12502
rthumb -0.996601 -34.9757
lclavicle 2.3059e-014 -4.77083e-015
lhumerus -28.5294 -9.63533 91.2255
lradius 55.2316
lwrist -4.27117
lhand -18.2727 19.182
lfingers 7.12502
lthumb 8.00713 49.0104
rfemur -25.9411 -7.60513 19.9276
rtibia 38.4375
rfoot -26.1306 -18.6541
rtoes 1.99177
lfemur -38.4888 4.79481 -19.175
ltibia 42.7146
lfoot -3.91767 -5.67276
ltoes -15.6622
840
root -4.8899 17.767 1.49444 368.985 -23.3597 -355.829
lowerback 11.9051 2.36723 1.87433
upperback 2.87903 3.44768 2.95849
thorax -3.72468 1.67981 1.51631
lowerneck -21.5746 8.24118 -4.38523
upperneck 29.6129 16.8182 -9.20917
head 14.4184 5.412 0.167845
rclavicle -5.56597e-015 1.59028e-015
rhumerus -32.586 -4.34538 -80.8432
rradius 52.0302
rwrist -11.024
rhand -27.7379 -5.33711
rfingers 7.12502
rthumb -1.13281 -35.3138
lclavicle -5.56597e-015 1.59028e-015
lhumerus -28.6354 -9.25166 90.8516
lradius 55.1599
lwrist -4.12621
lhand -18.178 19.3922
lfingers 7.12502
lthumb 8.09857 49.2171
rfemur -25.2576 -7.69547 20.3285
rtibia 38.2625
rfoot -26.6707 -18.8189
rtoes 2.12147
lfemur -37.8976 4.97232 -19.2452
ltibia 40.4517
lfoot -4.33793 -5.62935
ltoes -15.2868
841
root -4.94279 17.7623 1.58054 369.009 -22.99 -356.137
lowerback 11.765 2.51849 2.0748
upperback 2.80661 3.6672 2.87271
thorax -3.7085 1.78729 1.28642
lowerneck -21.598 8.24676 -4.34919
upperneck 29.727 16.8529 -9.2263
head 14.4821 5.41861 0.164737
rclavicle -7.15625e-015 -2.38542e-014
rhumerus -32.5312 -5.1099 -80.4354
rradius 51.051
rwrist -10.9726
rhand -27.7501 -5.03821
rfingers 7.12502
rthumb -1.14453 -35.0149
lclavicle -7.15625e-015 -2.38542e-014
lhumerus -28.9151 -8.70515 90.5211
lradius 55.1209
lwrist -4.09008
lhand -18.209 19.4512
lfingers 7.12502
lthumb 8.06865 49.2772
rfemur -24.6158 -7.76083 20.6517
rtibia 38.0958
rfoot -27.1423 -18.7872
rtoes 2.58333
lfemur -37.3168 5.12522 -19.3564
ltibia 38.2047
lfoot -4.70875 -5.17687
ltoes -16.7949
842
root -4.99392 17.7565 1.6696 369.048 -22.6017 -356.29
lowerback 11.4629 2.62234 2.10917
upperback 2.73594 3.79907 2.79825
thorax -3.61034 1.85411 1.18238
lowerneck -21.4132 8.30117 -4.29939
upperneck 29.7059 16.9328 -9.31946
head 14.4533 5.45766 0.128071
rclavicle -5.00937e-014 -1.27222e-014
rhumerus -32.4631 -5.69797 -79.9958
rradius 50.0292
rwrist -10.6586
rhand -27.4865 -4.30462
rfingers 7.12502
rthumb -0.88993 -34.2825
lclavicle -5.00937e-014 -1.27222e-014
lhumerus -29.2051 -8.03259 90.2036
lradius 55.0068
lwrist -4.06323
lhand -18.3862 19.4398
lfingers 7.12502
lthumb 7.89761 49.2723
rfemur -24.0393 -7.82683 20.8122
rtibia 37.9051
rfoot -27.5629 -18.7858
rtoes 3.02868
lfemur -36.7959 5.36804 -19.7317
ltibia 35.9851
lfoot -5.06087 -4.70633
ltoes -19.1283
843
root -5.04364 17.7472 1.75812 369.176 -22.1169 -356.421
lowerback 11.1088 2.69765 2.13287
upperback 2.622 3.89266 2.73287
thorax -3.5291 1.90222 1.10162
lowerneck -21.3121 8.34182 -4.28416
upperneck 29.8215 17.0098 -9.32961
head 14.4896 5.48746 0.132735
rclavicle 1.35174e-014 1.90833e-014
rhumerus -32.4338 -6.05925 -79.5779
rradius 49.1007
rwrist -10.2062
rhand -27.4142 -4.20015
rfingers 7.12502
rthumb -0.820145 -34.1783
lclavicle 1.35174e-014 1.90833e-014
lhumerus -29.509 -7.48666 89.9034
lradius 54.8643
lwrist -3.77044
lhand -18.4227 19.5349
lfingers 7.12502
lthumb 7.86241 49.3687
rfemur -23.5662 -7.90886 20.9938
rtibia 37.6643
rfoot -27.8478 -19.0949
rtoes 2.51873
lfemur -36.4183 5.76344 -20.25
ltibia 33.811
lfoot -5.20388 -4.39263
ltoes -20.7522
844
root -5.0925 17.7453 1.84662 369.302 -21.6674 -356.546
lowerback 10.7833 2.79038 2.17021
upperback 2.5084 4.0104 2.63514
thorax -3.45937 1.96188 0.976121
lowerneck -21.2392 8.39296 -4.29113
upperneck 29.8726 17.0938 -9.31858
head 14.4979 5.52538 0.151304
rclavicle 4.53229e-014 1.59028e-015
rhumerus -32.4122 -6.31975 -79.228
rradius 48.1906
rwrist -9.67705
rhand -27.5693 -4.26532
rfingers 7.12502
rthumb -0.969915 -34.2429
lclavicle 4.53229e-014 1.59028e-015
lhumerus -29.7568 -6.97381 89.5653
lradius 54.6523
lwrist -3.44648
lhand -18.122 19.9808
lfingers 7.12502
lthumb 8.15259 49.8035
rfemur -23.0705 -8.07181 21.1749
rtibia 37.3554
rfoot -28.0326 -19.4051
rtoes 1.60202
lfemur -36.0691 6.22022 -20.8161
ltibia 31.6978
lfoot -5.0277 -3.90142
ltoes -22.0418
845
root -5.13699 17.7514 1.93592 369.327 -21.2001 -356.789
lowerback 10.6184 2.82018 2.31327
upperback 2.45878 4.05961 2.56452
thorax -3.4052 1.98611 0.82369
lowerneck -21.2409 8.53674 -4.09154
upperneck 29.8415 17.3055 -9.50698
head 14.5377 5.61391 0.0898197
rclavicle -1.94809e-014 3.18055e-014
rhumerus -32.3336 -6.49311 -78.9444
rradius 47.3065
rwrist -8.96143
rhand -27.6293 -4.25938
rfingers 7.12502
rthumb -1.02786 -34.2367
lclavicle -1.94809e-014 3.18055e-014
lhumerus -29.9124 -6.33265 89.1513
lradius 54.2482
lwrist -3.10407
lhand -18.3106 19.8425
lfingers 7.12502
lthumb 7.97053 49.6722
rfemur -22.3674 -8.3183 21.4572
rtibia 36.9717
rfoot -28.2077 -19.5488
rtoes 1.47276
lfemur -35.5542 6.50712 -21.1997
ltibia 29.6598
lfoot -4.72922 -3.05613
ltoes -22.7098
846
root -5.18011 17.7556 2.03078 369.335 -20.6997 -357.112
lowerback 10.445 2.84936 2.56797
upperback 2.4221 4.11915 2.51665
thorax -3.32611 2.01483 0.632699
lowerneck -21.2476 8.64107 -3.86223
upperneck 29.8708 17.4494 -9.66385
head 14.6024 5.67574 0.0237808
rclavicle -5.96354e-015 1.59028e-014
rhumerus -32.2632 -6.67012 -78.6162
rradius 46.3848
rwrist -7.94342
rhand -27.5287 -4.19507
rfingers 7.12502
rthumb -0.93077 -34.1728
lclavicle -5.96354e-015 1.59028e-014
lhumerus -30.0723 -5.77989 88.7715
lradius 53.8013
lwrist -2.6535
lhand -18.6139 19.5059
lfingers 7.12502
lthumb 7.67787 49.3466
rfemur -21.5826 -8.54327 21.7955
rtibia 36.59
rfoot -28.5798 -19.5562
rtoes 2.19283
lfemur -34.8791 6.60239 -21.45
ltibia 27.6285
lfoot -4.34654 -1.81784
ltoes -22.8834
847
root -5.22167 17.7566 2.12998 369.401 -20.233 -357.291
lowerback 10.1498 2.90878 2.67869
upperback 2.33487 4.20023 2.45886
thorax -3.24127 2.05583 0.514264
lowerneck -21.3521 8.6566 -3.98962
upperneck 30.0753 17.4999 -9.45624
head 14.678 5.69167 0.139548
rclavicle -2.3059e-014 -2.38542e-014
rhumerus -32.2254 -6.75566 -78.2348
rradius 45.4554
rwrist -6.76177
rhand -27.4244 -4.04026
rfingers 7.12502
rthumb -0.829994 -34.0184
lclavicle -2.3059e-014 -2.38542e-014
lhumerus -30.2324 -5.14711 88.4414
lradius 53.4158
lwrist -2.54036
lhand -18.1506 20.305
lfingers 7.12502
lthumb 8.12502 50.1288
rfemur -20.9604 -8.79475 21.9887
rtibia 36.2867
rfoot -29.0126 -19.585
rtoes 2.38265
lfemur -34.3211 6.83437 -21.9421
ltibia 25.6212
lfoot -3.9356 -0.697516
ltoes -23.7974
848
root -5.26044 17.759 2.22714 369.54 -19.8855 -356.994
lowerback 9.61098 2.99392 2.31193
upperback 2.21717 4.25583 2.27115
thorax -3.07804 2.08951 0.543168
lowerneck -21.502 8.75614 -4.04933
upperneck 30.2578 17.7016 -9.38311
head 14.7866 5.7587 0.225233
rclavicle 5.60573e-014 -6.36111e-014
rhumerus -32.2031 -6.68158 -77.9159
rradius 44.5598
rwrist -5.61649
rhand -27.5357 -3.77435
rfingers 7.12502
rthumb -0.937479 -33.752
lclavicle 5.60573e-014 -6.36111e-014
lhumerus -30.3903 -4.4959 88.0987
lradius 53.0427
lwrist -2.44662
lhand -17.5819 21.2829
lfingers 7.12502
lthumb 8.67381 51.0847
rfemur -20.6697 -8.96938 21.7026
rtibia 36.0447
rfoot -29.3219 -19.7251
rtoes 2.02988
lfemur -34.0863 7.21406 -23.0404
ltibia 23.7209
lfoot -3.34786 0.301536
ltoes -25.2729
